<svg width="28" height="20" viewBox="0 0 28 20" fill="none" xmlns="http://www.w3.org/2000/svg">
<path d="M23.2639 8.81596C22.6812 4.22663 18.7505 0.666626 14.0052 0.666626C10.3305 0.666626 7.13854 2.81463 5.68121 6.19996C2.81721 7.05596 0.671875 9.75996 0.671875 12.6666C0.671875 16.3426 3.66254 19.3333 7.33854 19.3333H8.67188V16.6666H7.33854C5.13321 16.6666 3.33854 14.872 3.33854 12.6666C3.33854 10.7946 4.93721 8.99063 6.90254 8.64529L7.67721 8.50929L7.93321 7.76529C8.87054 5.03063 11.1972 3.33329 14.0052 3.33329C17.6812 3.33329 20.6719 6.32396 20.6719 9.99996V11.3333H22.0052C23.4759 11.3333 24.6719 12.5293 24.6719 14C24.6719 15.4706 23.4759 16.6666 22.0052 16.6666H19.3385V19.3333H22.0052C24.9465 19.3333 27.3385 16.9413 27.3385 14C27.337 12.8047 26.9347 11.6444 26.196 10.7046C25.4574 9.76486 24.425 9.09987 23.2639 8.81596Z" fill="#FAFAFA"/>
<path d="M15.3385 12.6666V7.33329H12.6719V12.6666H8.67188L14.0052 19.3333L19.3385 12.6666H15.3385Z" fill="#FAFAFA"/>
</svg>
