<svg width="28" height="20" viewBox="0 0 28 20" fill="none" xmlns="http://www.w3.org/2000/svg">
<path d="M23.2639 8.81602C22.6812 4.22669 18.7505 0.666687 14.0052 0.666687C10.3305 0.666687 7.13854 2.81469 5.68121 6.20002C2.81721 7.05602 0.671875 9.76002 0.671875 12.6667C0.671875 16.3427 3.66254 19.3334 7.33854 19.3334H8.67188V16.6667H7.33854C5.13321 16.6667 3.33854 14.872 3.33854 12.6667C3.33854 10.7947 4.93721 8.99069 6.90254 8.64535L7.67721 8.50935L7.93321 7.76535C8.87054 5.03069 11.1972 3.33335 14.0052 3.33335C17.6812 3.33335 20.6719 6.32402 20.6719 10V11.3334H22.0052C23.4759 11.3334 24.6719 12.5294 24.6719 14C24.6719 15.4707 23.4759 16.6667 22.0052 16.6667H19.3385V19.3334H22.0052C24.9465 19.3334 27.3385 16.9414 27.3385 14C27.337 12.8047 26.9347 11.6444 26.196 10.7047C25.4574 9.76492 24.425 9.09994 23.2639 8.81602Z" fill="#FAFAFA"/>
<path d="M15.3385 12.6667V7.33335H12.6719V12.6667H8.67188L14.0052 19.3334L19.3385 12.6667H15.3385Z" fill="#FAFAFA"/>
</svg>
